<svg width="349" height="296" viewBox="0 0 349 296" fill="none" xmlns="http://www.w3.org/2000/svg">
<mask id="path-1-inside-1_199475_18581" fill="white">
<path d="M55.7999 222.762C39.609 202.4 29.6154 178.087 26.9394 152.551C24.2635 127.014 29.011 101.263 40.6497 78.1841C52.2885 55.1054 70.3583 35.6115 92.8334 21.888C115.308 8.16453 141.3 0.753896 167.895 0.486964C194.489 0.220033 220.635 7.10736 243.401 20.3768C266.167 33.6462 284.653 52.7731 296.787 75.6132C308.921 98.4533 314.222 124.104 312.097 149.688C309.972 175.273 300.504 199.781 284.756 220.464L280.141 217.192C295.26 197.336 304.348 173.808 306.388 149.247C308.429 124.685 303.339 100.061 291.691 78.1346C280.043 56.2082 262.296 37.8463 240.441 25.1076C218.585 12.369 193.485 5.75718 167.954 6.01343C142.424 6.26968 117.472 13.3839 95.8954 26.5585C74.3193 39.733 56.9723 58.4471 45.7991 80.6027C34.6259 102.758 30.0683 127.479 32.6372 151.994C35.2061 176.51 44.8 199.85 60.3433 219.398L55.7999 222.762Z"/>
</mask>
<path d="M55.7999 222.762C39.609 202.4 29.6154 178.087 26.9394 152.551C24.2635 127.014 29.011 101.263 40.6497 78.1841C52.2885 55.1054 70.3583 35.6115 92.8334 21.888C115.308 8.16453 141.3 0.753896 167.895 0.486964C194.489 0.220033 220.635 7.10736 243.401 20.3768C266.167 33.6462 284.653 52.7731 296.787 75.6132C308.921 98.4533 314.222 124.104 312.097 149.688C309.972 175.273 300.504 199.781 284.756 220.464L280.141 217.192C295.26 197.336 304.348 173.808 306.388 149.247C308.429 124.685 303.339 100.061 291.691 78.1346C280.043 56.2082 262.296 37.8463 240.441 25.1076C218.585 12.369 193.485 5.75718 167.954 6.01343C142.424 6.26968 117.472 13.3839 95.8954 26.5585C74.3193 39.733 56.9723 58.4471 45.7991 80.6027C34.6259 102.758 30.0683 127.479 32.6372 151.994C35.2061 176.51 44.8 199.85 60.3433 219.398L55.7999 222.762Z" fill="#E9E3D5" stroke="#E9E3D5" stroke-width="8" mask="url(#path-1-inside-1_199475_18581)"/>
<path d="M332.507 56.2178C220.295 36.5804 73.3038 48.0356 13.8347 56.2178C-6.50782 61.6669 5.35865 64.2287 13.8347 64.8284C156.56 42.9292 285.752 55.7037 332.507 64.8284C358.755 62.9778 343.444 58.3169 332.507 56.2178Z" fill="#E9E3D5" stroke="#E9E3D5" stroke-width="4"/>
<path d="M326.644 69.0155C218.6 52.3993 77.0683 62.0921 19.8081 69.0155C0.221186 73.6263 11.6469 75.7939 19.8081 76.3014C157.233 57.7713 281.626 68.5805 326.644 76.3014C351.917 74.7355 337.174 70.7917 326.644 69.0155Z" fill="#E9E3D5" stroke="#E9E3D5" stroke-width="4"/>
<path d="M305.405 81.8678C213.178 67.0436 91.0591 73.8072 41.5281 79.042C24.492 82.6991 34.228 84.6084 41.2255 85.1059C160.179 70.9494 266.707 81.0912 305.102 87.9316C326.902 86.8611 314.387 83.443 305.405 81.8678Z" fill="#E9E3D5" stroke="#E9E3D5" stroke-width="4"/>
<path d="M178.224 87.4559C179.211 89.4882 178.422 91.2398 177.418 91.7413C176.414 92.2428 174.563 91.81 173.575 89.7777C172.588 87.7454 173.377 85.9937 174.381 85.4922C175.385 84.9908 177.236 85.4236 178.224 87.4559Z" fill="#E9E3D5" stroke="#E9E3D5" stroke-width="4"/>
<path d="M206.917 155.28C207.905 157.312 207.115 159.064 206.111 159.566C205.107 160.067 203.256 159.634 202.269 157.602C201.281 155.57 202.07 153.818 203.074 153.316C204.078 152.815 205.929 153.248 206.917 155.28Z" fill="#E9E3D5" stroke="#E9E3D5" stroke-width="4"/>
<path d="M133.066 141.14C134.054 143.173 133.265 144.924 132.261 145.426C131.257 145.927 129.406 145.495 128.418 143.462C127.43 141.43 128.22 139.678 129.224 139.177C130.228 138.675 132.079 139.108 133.066 141.14Z" fill="#E9E3D5" stroke="#E9E3D5" stroke-width="4"/>
<path d="M172.974 88.5115C167.895 88.0979 162.368 90.9694 157.508 97.3669C152.663 103.745 149.035 112.943 147.401 123.305C145.768 133.655 146.261 144.317 148.747 153.297C151.246 162.324 155.508 168.767 160.456 171.803C165.238 174.738 170.62 174.467 175.848 170.727C181.185 166.908 185.949 159.729 189.069 150.302C192.178 140.908 193.374 130.12 192.423 119.96C191.47 109.776 188.444 101.096 184.076 95.4238" stroke="#E9E3D5" stroke-width="4"/>
<path d="M205.89 153.392C208.602 148.985 208.616 142.677 205.251 135.371C201.894 128.081 195.51 120.593 187.191 114.364C178.881 108.141 169.323 103.686 160.321 101.799C151.276 99.9017 143.675 100.773 138.733 103.837C133.944 106.807 131.703 111.801 132.577 118.235C133.468 124.796 137.565 132.379 144.382 139.515C151.176 146.627 160.07 152.659 169.398 156.47C178.749 160.29 187.737 161.555 194.71 160.23" stroke="#E9E3D5" stroke-width="4"/>
<path d="M135.243 153.814C138.144 158.093 143.842 160.626 151.793 160.416C159.726 160.206 169.048 157.263 178.003 152.019C186.949 146.78 194.795 139.674 200.097 132.061C205.425 124.41 207.673 116.997 206.875 111.18C206.103 105.545 202.483 101.468 196.316 99.7105C190.027 97.9187 181.533 98.6983 172.357 102.185C163.213 105.66 154.206 111.518 147.034 118.667C139.845 125.833 135.111 133.682 133.524 140.693" stroke="#E9E3D5" stroke-width="4"/>
<path d="M185.347 147.569C182.739 142.999 178.56 139.879 173.719 138.755C176.019 137.799 177.921 136.063 179.1 133.843C180.278 131.624 180.66 129.058 180.179 126.585C179.699 124.111 178.387 121.884 176.466 120.283C174.546 118.682 172.137 117.807 169.65 117.807C167.164 117.807 164.755 118.682 162.834 120.283C160.914 121.884 159.601 124.111 159.121 126.585C158.64 129.058 159.022 131.624 160.2 133.843C161.379 136.063 163.281 137.799 165.582 138.755C160.746 139.875 156.561 142.999 153.954 147.569C153.878 147.715 153.861 147.885 153.907 148.044C153.952 148.202 154.056 148.337 154.197 148.42C154.338 148.502 154.505 148.526 154.663 148.487C154.821 148.448 154.958 148.348 155.046 148.209C158.13 142.799 163.593 139.569 169.65 139.569C175.707 139.569 181.171 142.799 184.254 148.209C184.31 148.306 184.389 148.387 184.485 148.443C184.581 148.499 184.69 148.529 184.801 148.529C184.911 148.529 185.02 148.499 185.116 148.443C185.261 148.358 185.366 148.218 185.41 148.054C185.453 147.89 185.43 147.716 185.347 147.569ZM160.181 128.689C160.181 126.79 160.737 124.934 161.777 123.355C162.817 121.777 164.296 120.546 166.027 119.82C167.757 119.093 169.661 118.903 171.497 119.273C173.334 119.644 175.021 120.558 176.346 121.901C177.67 123.243 178.572 124.954 178.937 126.816C179.303 128.678 179.115 130.608 178.398 132.363C177.682 134.117 176.468 135.616 174.911 136.671C173.354 137.726 171.523 138.289 169.65 138.289C167.14 138.286 164.733 137.274 162.958 135.474C161.183 133.674 160.184 131.234 160.181 128.689Z" fill="#E9E3D5" stroke="#E9E3D5" stroke-width="4"/>
<path d="M125.607 261.354H41.4756L148.603 4.46875L189.287 4.46875L300.266 261.354L213.674 261.354" stroke="#E9E3D5" stroke-width="4"/>
<mask id="path-13-inside-2_199475_18581" fill="white">
<path d="M169.623 295.77C143.673 295.77 122.637 274.443 122.637 248.134C122.637 221.825 143.673 200.498 169.623 200.498C195.572 200.498 216.608 221.825 216.608 248.134C216.608 274.443 195.572 295.77 169.623 295.77ZM169.623 203.366C145.235 203.366 125.466 223.409 125.466 248.134C125.466 272.859 145.235 292.902 169.623 292.902C194.01 292.902 213.78 272.859 213.78 248.134C213.78 223.409 194.01 203.366 169.623 203.366Z"/>
</mask>
<path d="M169.623 295.77C143.673 295.77 122.637 274.443 122.637 248.134C122.637 221.825 143.673 200.498 169.623 200.498C195.572 200.498 216.608 221.825 216.608 248.134C216.608 274.443 195.572 295.77 169.623 295.77ZM169.623 203.366C145.235 203.366 125.466 223.409 125.466 248.134C125.466 272.859 145.235 292.902 169.623 292.902C194.01 292.902 213.78 272.859 213.78 248.134C213.78 223.409 194.01 203.366 169.623 203.366Z" fill="#E9E3D5" stroke="#E9E3D5" stroke-width="8" mask="url(#path-13-inside-2_199475_18581)"/>
<path d="M166.001 256.319C166.001 256.907 165.518 257.383 164.922 257.383C164.326 257.383 163.843 256.907 163.843 256.319C163.843 255.731 164.326 255.254 164.922 255.254C165.518 255.254 166.001 255.731 166.001 256.319Z" fill="#E9E3D5"/>
<path d="M142.807 244.607H143.166M169.057 268.03H163.484H152.875V265.546L152.875 264.836L153.415 264.304L153.954 263.771H158.09M169.057 268.03H192.611H194.769L196.207 266.61L196.746 265.546V261.287V251.528V244.962M169.057 268.03L168.158 266.965L167.799 266.078V263.771M196.746 244.962V243.543M196.746 244.962L196.926 244.607M196.746 243.543V241.413V239.462V238.929L196.387 238.397L196.027 238.042L195.668 237.865H193.15H190.274H186.857H185.958H185.689M196.746 243.543L167.799 243.543M185.689 237.865H185.419L169.597 238.042H168.518L167.799 238.574V239.462V243.543M185.689 237.865V228.992L185.239 228.283L184.52 227.928H182.183L144.964 227.928H144.245L143.526 228.283L143.166 228.815V229.525V244.607M143.166 244.607V252.592M167.439 260.222H158.09M158.09 260.222H144.784L144.245 260.045L143.885 259.868L143.526 259.513L143.166 258.98V258.625V252.592M158.09 260.222V263.771M158.09 263.771H167.799M167.799 263.771V253.657V252.592M167.799 252.592H143.166M167.799 252.592V243.543M170.855 260.045H179.666M166.001 256.319C166.001 256.907 165.518 257.383 164.922 257.383C164.326 257.383 163.843 256.907 163.843 256.319C163.843 255.731 164.326 255.254 164.922 255.254C165.518 255.254 166.001 255.731 166.001 256.319Z" stroke="#E9E3D5" stroke-width="4"/>
<path d="M184.701 261.114H193.332" stroke="#E9E3D5" stroke-width="4"/>
<path d="M170.851 264.665H175.346" stroke="#E9E3D5" stroke-width="4"/>
<path d="M184.521 264.848H189.196" stroke="#E9E3D5" stroke-width="4"/>
<path d="M184.334 257.744H179.839V257.39V257.035L180.198 256.68H183.614H184.513L184.693 257.035L184.513 257.39L184.334 257.744Z" fill="#E9E3D5"/>
<path d="M180.738 256.544V256.046L180.378 255.437L178.76 252.953L182.176 248.872M182.176 248.872L185.412 252.953L184.154 255.437L183.614 256.046V256.68M182.176 248.872V252.776H181.277H182.22H183.163M183.614 256.68H184.513L184.693 257.035L184.513 257.39L184.334 257.744H179.839V257.39V257.035L180.198 256.68H183.614Z" stroke="#E9E3D5" stroke-width="4"/>
<path d="M157.55 233.975L152.516 244.976" stroke="#E9E3D5" stroke-width="4"/>
<path d="M159.354 236.631L162.23 239.47L159.354 242.309" stroke="#E9E3D5" stroke-width="4"/>
<path d="M150.543 236.455L147.666 239.294L150.543 242.133" stroke="#E9E3D5" stroke-width="4"/>
</svg>
